<?xml version="1.0" encoding="UTF-8" standalone="no"?>
<!-- Created with Inkscape (http://www.inkscape.org/) -->

<svg
   xmlns:dc="http://purl.org/dc/elements/1.1/"
   xmlns:cc="http://creativecommons.org/ns#"
   xmlns:rdf="http://www.w3.org/1999/02/22-rdf-syntax-ns#"
   xmlns:svg="http://www.w3.org/2000/svg"
   xmlns="http://www.w3.org/2000/svg"
   xmlns:sodipodi="http://sodipodi.sourceforge.net/DTD/sodipodi-0.dtd"
   xmlns:inkscape="http://www.inkscape.org/namespaces/inkscape"
   width="500"
   height="350"
   viewBox="0 0 132.29166 92.604169"
   version="1.1"
   id="svg8"
   inkscape:version="0.92.4 (5da689c313, 2019-01-14)"
   sodipodi:docname="azar.svg">
  <defs
     id="defs2" />
  <sodipodi:namedview
     id="base"
     pagecolor="#ffffff"
     bordercolor="#666666"
     borderopacity="1.0"
     inkscape:pageopacity="0.0"
     inkscape:pageshadow="2"
     inkscape:zoom="0.98994949"
     inkscape:cx="632.18323"
     inkscape:cy="339.88622"
     inkscape:document-units="px"
     inkscape:current-layer="layer6"
     showgrid="false"
     units="px"
     inkscape:window-width="1920"
     inkscape:window-height="970"
     inkscape:window-x="1366"
     inkscape:window-y="32"
     inkscape:window-maximized="1" />
  <metadata
     id="metadata5">
    <rdf:RDF>
      <cc:Work
         rdf:about="">
        <dc:format>image/svg+xml</dc:format>
        <dc:type
           rdf:resource="http://purl.org/dc/dcmitype/StillImage" />
        <dc:title />
      </cc:Work>
    </rdf:RDF>
  </metadata>
  <g
     inkscape:label="Camada 1"
     inkscape:groupmode="layer"
     id="layer1"
     transform="translate(0,-204.39581)"
     sodipodi:insensitive="true">
    <rect
       style="fill:#aad400;fill-opacity:1;stroke:none;stroke-width:0.62599999;stroke-miterlimit:4;stroke-dasharray:none;stroke-opacity:1"
       id="rect815"
       width="131.66525"
       height="91.977745"
       x="0.31321082"
       y="204.70903" />
  </g>
  <g
     inkscape:groupmode="layer"
     id="layer2"
     inkscape:label="espelho"
     sodipodi:insensitive="true">
    <ellipse
       style="fill:#008000;fill-opacity:1;stroke:#000000;stroke-width:0.49775177;stroke-miterlimit:4;stroke-dasharray:none;stroke-opacity:1"
       id="path818"
       cx="66.145836"
       cy="46.302082"
       rx="59.282375"
       ry="39.438625" />
    <path
       style="fill:#00ffff;fill-opacity:1;stroke:#000000;stroke-width:0.25829753;stroke-miterlimit:4;stroke-dasharray:none;stroke-opacity:1"
       d="m 83.094181,10.431734 -10.649716,25.739045 2.894432,5.303981 -8.15722,2.58721 3.815826,4.657181 6.578486,6.597087 -12.630894,11.125206 17.749189,10.116734 -0.04172,6.913735 A 58.366062,38.177064 0 0 0 124.23184,47.058875 58.366062,38.177064 0 0 0 83.094181,10.431734 Z"
       id="path818-6"
       inkscape:connector-curvature="0" />
    <path
       style="fill:#00ffff;fill-opacity:1;stroke:#000000;stroke-width:1;stroke-miterlimit:4;stroke-dasharray:none;stroke-opacity:1"
       d="m 103.03516,153.52539 -75.423832,6.10938 c -7.573605,49.46676 22.427598,98.18876 79.990232,129.90429 57.56313,31.71595 132.82857,42.17618 204.47266,28.00977 l -15.24359,-24.62388 -51.36969,-41.80776 22.22851,-21.32617 -25.25195,-48.99219 -55.55859,8.58789 -14.64844,-23.74024 -54.54688,4.04102 z"
       transform="scale(0.26458333)"
       id="path818-7"
       inkscape:connector-curvature="0"
       sodipodi:nodetypes="cccccccccccc" />
    <path
       style="fill:#00ffff;fill-opacity:1;stroke:#000000;stroke-width:0.261107;stroke-miterlimit:4;stroke-dasharray:none;stroke-opacity:1"
       d="M 27.261386,40.620259 9.1907276,41.96242 C 14.609898,27.172277 15.583485,26.233596 30.414693,17.841454 45.246029,9.4491862 64.638424,6.6813391 83.097768,10.429874 l -6.006432,14.264162 -11.156706,3.314105 5.727251,5.643051 -6.506251,12.963673 -15.710586,3.493704 -3.875733,-6.281272 -14.432195,1.069187 z"
       id="path818-7-5"
       inkscape:connector-curvature="0"
       sodipodi:nodetypes="cccccccccccc" />
    <path
       style="fill:#008000;fill-opacity:1;stroke:#000000;stroke-width:0.26458332;stroke-miterlimit:4;stroke-dasharray:none;stroke-opacity:1"
       d="M 66.149248,7.1953143 A 59.282374,39.438624 0 0 0 6.8670809,46.633733 59.282374,39.438624 0 0 0 66.149248,86.07267 59.282374,39.438624 0 0 0 125.43142,46.633733 59.282374,39.438624 0 0 0 66.149248,7.1953143 Z m 0.33228,1.9874753 A 57.295629,37.451879 0 0 1 123.77725,46.634249 57.295629,37.451879 0 0 1 66.481528,84.086226 57.295629,37.451879 0 0 1 9.1858019,46.634249 57.295629,37.451879 0 0 1 66.481528,9.1827896 Z"
       id="path818-3"
       inkscape:connector-curvature="0" />
  </g>
  <g
     inkscape:groupmode="layer"
     id="layer3"
     inkscape:label="espinha"
     sodipodi:insensitive="true">
    <path
       style="fill:#cccccc;stroke:#000000;stroke-width:0.99999994px;stroke-linecap:butt;stroke-linejoin:miter;stroke-opacity:1"
       d="m 186.12109,72.712891 c 0,0 14.43462,25.508625 16.01953,41.726559 -3.04245,0.18424 -6.36849,0.37834 -10.25,0.58399 -1.58902,-16.273563 -20.3125,-41.546878 -20.3125,-41.546878 0,10e-7 14.20071,25.103252 16.28907,41.740238 -4.26557,0.21432 -8.67065,0.42593 -13.51758,0.61914 -2.31385,-13.76952 -16.98242,-33.566409 -16.98242,-33.566409 0,0 11.12803,19.669539 13.54687,33.703129 -5.09355,0.18863 -10.3903,0.34619 -15.76367,0.46679 -2.33833,-12.98758 -15.98633,-31.406247 -15.98633,-31.406247 0,0 10.32677,18.249337 12.73242,31.474607 -5.26009,0.0997 -10.5566,0.15777 -15.76953,0.15039 -2.48864,-11.58576 -14.17383,-27.357419 -14.17383,-27.357419 0,0 8.79733,15.564939 11.23047,27.335939 -7.60407,-0.0466 -14.98827,-0.22058 -21.70117,-0.60547 -1.37436,-26.26574 -18.814451,-30.304688 -18.814451,-30.304688 0,0 5.933465,38.133658 -2.021485,56.316408 19.192896,-5.55584 21.466796,-22.60156 21.466796,-22.60156 0,0 9.10951,-0.34821 21.44922,-0.75586 0.17425,1.20523 0.26527,2.3559 0.25391,3.42383 -0.0895,8.41023 -9.08203,23.54101 -9.08203,23.54101 0,0 11.83833,-15.7924 11.86328,-25.02344 0.002,-0.65288 -0.0495,-1.33624 -0.13672,-2.03711 4.91192,-0.15891 10.09779,-0.31076 15.6875,-0.46875 0.16534,1.22873 0.25776,2.40688 0.24609,3.50391 -0.0998,9.38007 -10.13086,26.25391 -10.13086,26.25391 0,0 13.20446,-17.6127 13.23242,-27.90821 0.002,-0.62527 -0.047,-1.27803 -0.11914,-1.94336 5.26521,-0.14362 10.489,-0.26413 15.78516,-0.37695 0.14616,1.1783 0.23003,2.31255 0.21875,3.37305 -0.10567,9.93425 -10.72852,27.80664 -10.72852,27.80664 0,0 13.98224,-18.65481 14.01172,-29.5586 0.001,-0.54871 -0.0352,-1.11898 -0.0879,-1.69726 4.67792,-0.0919 9.20725,-0.16962 13.49805,-0.21484 0.0398,0.64786 0.0632,1.28621 0.0566,1.89843 -0.12483,11.73536 -12.67383,32.84766 -12.67383,32.84766 0,0 16.39729,-21.88017 16.54688,-34.7793 3.74579,-0.0248 7.18747,-0.0242 10.27734,0.008 -1.9e-4,0.0255 0.002,0.0527 0.002,0.0781 -0.12188,11.45826 -12.375,32.07227 -12.375,32.07227 0,0 14.51438,-19.36841 16.02735,-32.09376 4.21651,0.0915 7.49808,0.25802 9.21289,0.53516 1.01015,13.63706 2.01953,27.7793 2.01953,27.7793 0,0 23.74023,-8.58681 23.74023,-31.82031 0,-23.233509 -26.26562,-36.365239 -26.26562,-36.365239 l -0.125,36.113279 c 0,0 -4.03097,0.27651 -8.48828,0.56446 -0.90497,-15.836793 -19.90821,-41.484379 -19.90821,-41.484379 z m 38.87696,21.853515 a 3.4092648,3.2829957 0 0 1 3.4082,3.283203 3.4092648,3.2829957 0 0 1 -3.4082,3.281251 3.4092648,3.2829957 0 0 1 -3.41016,-3.281251 3.4092648,3.2829957 0 0 1 3.41016,-3.283203 z"
       transform="scale(0.26458333)"
       id="path897"
       inkscape:connector-curvature="0" />
  </g>
  <g
     inkscape:groupmode="layer"
     id="layer4"
     inkscape:label="bigode"
     sodipodi:insensitive="true">
    <path
       style="fill:#000000;stroke:#000000;stroke-width:0.26458332px;stroke-linecap:butt;stroke-linejoin:miter;stroke-opacity:1"
       d="m 17.773422,54.985979 c 0,0 -5.278572,6.080382 7.216279,9.354435 26.935305,4.529001 20.350875,-14.476985 2.472242,-5.545844 0,0 -11.425771,1.135898 -9.688521,-3.808591 z"
       id="path866"
       inkscape:connector-curvature="0"
       sodipodi:nodetypes="cccc" />
    <path
       style="fill:none;stroke:#000000;stroke-width:0.26458332px;stroke-linecap:butt;stroke-linejoin:miter;stroke-opacity:1"
       d="m 67.15012,55.410317 c 0,0 5.278572,6.080382 -7.216279,9.354435 -26.935305,4.529001 -20.350874,-14.476985 -2.472241,-5.545844 0,0 11.42577,1.135898 9.68852,-3.808591 z"
       id="path866-3"
       inkscape:connector-curvature="0"
       sodipodi:nodetypes="cccc" />
  </g>
  <g
     inkscape:groupmode="layer"
     id="layer5"
     inkscape:label="katana"
     sodipodi:insensitive="true">
    <path
       style="fill:#666666;stroke:#000000;stroke-width:0.44365731px;stroke-linecap:butt;stroke-linejoin:miter;stroke-opacity:1"
       d="m 93.33859,33.949938 c 0,0 1.666455,23.163326 12.22067,37.174312 -2.66633,3.050779 -2.66633,3.050779 -2.66633,3.050779 0,0 -10.551271,-16.383742 -13.220541,-40.338081 3.666201,0.112994 3.666201,0.112994 3.666201,0.112994 z"
       id="path884"
       inkscape:connector-curvature="0"
       sodipodi:nodetypes="cccccc" />
    <rect
       style="fill:#666666;fill-opacity:1;stroke:#000000;stroke-width:0.26458332;stroke-miterlimit:4;stroke-dasharray:none;stroke-opacity:1"
       id="rect886"
       width="11.091685"
       height="1.8040693"
       x="85.927147"
       y="32.067619" />
    <rect
       style="fill:#666666;fill-opacity:1;stroke:#000000;stroke-width:0.26458332;stroke-miterlimit:4;stroke-dasharray:none;stroke-opacity:1"
       id="rect888"
       width="2.5390604"
       height="15.768902"
       x="90.203468"
       y="16.231897" />
    <path
       style="fill:#ff0000;stroke:#000000;stroke-width:0.26458332px;stroke-linecap:butt;stroke-linejoin:miter;stroke-opacity:1"
       d="m 93.410698,35.408489 -3.541321,-0.133636 1.670436,9.755338 3.407685,-0.133636 z"
       id="path890"
       inkscape:connector-curvature="0" />
    <path
       style="fill:none;stroke:#000000;stroke-width:0.26458332px;stroke-linecap:butt;stroke-linejoin:miter;stroke-opacity:1"
       d="m 91.35212,44.105097 1.889879,-0.755952 1.559153,0.921316"
       id="path892"
       inkscape:connector-curvature="0" />
    <path
       style="fill:none;stroke:#000000;stroke-width:0.26458332px;stroke-linecap:butt;stroke-linejoin:miter;stroke-opacity:1"
       d="m 91.154047,42.881413 1.889879,-0.755952 1.559153,0.921316"
       id="path892-5"
       inkscape:connector-curvature="0" />
    <path
       style="fill:none;stroke:#000000;stroke-width:0.26458332px;stroke-linecap:butt;stroke-linejoin:miter;stroke-opacity:1"
       d="m 90.988682,41.629367 1.889879,-0.755952 1.559153,0.921316"
       id="path892-6"
       inkscape:connector-curvature="0" />
    <path
       style="fill:none;stroke:#000000;stroke-width:0.26458332px;stroke-linecap:butt;stroke-linejoin:miter;stroke-opacity:1"
       d="m 90.776071,40.164708 1.889879,-0.755952 1.559153,0.921316"
       id="path892-2"
       inkscape:connector-curvature="0" />
    <path
       style="fill:none;stroke:#000000;stroke-width:0.26458332px;stroke-linecap:butt;stroke-linejoin:miter;stroke-opacity:1"
       d="m 90.56346,39.078027 1.889879,-0.755952 1.559153,0.921316"
       id="path892-9"
       inkscape:connector-curvature="0" />
    <path
       style="fill:none;stroke:#000000;stroke-width:0.29120037px;stroke-linecap:butt;stroke-linejoin:miter;stroke-opacity:1"
       d="m 90.238517,37.817163 2.03809,-0.84911 1.681428,1.034852"
       id="path892-1"
       inkscape:connector-curvature="0" />
    <path
       style="fill:none;stroke:#000000;stroke-width:0.26458332px;stroke-linecap:butt;stroke-linejoin:miter;stroke-opacity:1"
       d="m 90.256354,36.573935 1.889879,-0.755952 1.559153,0.921316"
       id="path892-27"
       inkscape:connector-curvature="0" />
    <path
       style="fill:#ff0000;stroke:#000000;stroke-width:0.26458332px;stroke-linecap:butt;stroke-linejoin:miter;stroke-opacity:1"
       d="m 89.869377,35.274853 c 0,0 -5.958663,2.428272 -4.541253,10.838241 1.228422,-8.504463 4.541253,-10.838241 4.541253,-10.838241 z"
       id="path939"
       inkscape:connector-curvature="0"
       sodipodi:nodetypes="ccc" />
    <path
       style="fill:#ff0000;stroke:#000000;stroke-width:0.26458332px;stroke-linecap:butt;stroke-linejoin:miter;stroke-opacity:1"
       d="m 89.869377,35.274853 c 0,0 -6.39803,-0.683624 -9.132973,7.394539 5.109933,-6.908219 9.132973,-7.394539 9.132973,-7.394539 z"
       id="path939-0"
       inkscape:connector-curvature="0"
       sodipodi:nodetypes="ccc" />
    <rect
       style="fill:#ff0000;fill-opacity:1;stroke:#000000;stroke-width:0.19521646;stroke-miterlimit:4;stroke-dasharray:none;stroke-opacity:1"
       id="rect888-9"
       width="2.5818427"
       height="8.4421415"
       x="90.182076"
       y="18.666359" />
  </g>
  <g
     inkscape:groupmode="layer"
     id="layer6"
     inkscape:label="estilhaços">
    <path
       style="fill:#00ffff;fill-opacity:1;stroke:#000000;stroke-width:0.26458332px;stroke-linecap:butt;stroke-linejoin:miter;stroke-opacity:1"
       d="m 125.81962,76.86349 -11.1567,3.314104 7.06202,6.765669 z"
       id="path972"
       inkscape:connector-curvature="0" />
    <path
       style="fill:#00ffff;stroke:#000000;stroke-width:0.26458332px;stroke-linecap:butt;stroke-linejoin:miter;stroke-opacity:1"
       d="M 28.524183,86.02745 24.847168,78.203882 19.732719,88.468797 Z"
       id="path974"
       inkscape:connector-curvature="0" />
    <path
       style="fill:#00ffff;stroke:#000000;stroke-width:0.26458332px;stroke-linecap:butt;stroke-linejoin:miter;stroke-opacity:1"
       d="m 101.12062,83.834221 -0.008,5.989971 -0.81851,0.158691 -3.331558,-5.203782 z"
       id="path976"
       inkscape:connector-curvature="0" />
    <path
       style="fill:#00ffff;stroke:#000000;stroke-width:0.26458332px;stroke-linecap:butt;stroke-linejoin:miter;stroke-opacity:1"
       d="M 23.694537,14.418015 19.53669,15.362895 5.9453478,4.3012795 Z"
       id="path978"
       inkscape:connector-curvature="0" />
    <path
       style="fill:#00ffff;stroke:#000000;stroke-width:0.26458332px;stroke-linecap:butt;stroke-linejoin:miter;stroke-opacity:1"
       d="m 118.23016,5.0406185 -0.61063,-0.26398 -2.42613,4.038368 6.68125,12.9625155 6.74982,-5.482635 z"
       id="path980"
       inkscape:connector-curvature="0" />
  </g>
</svg>
