<?xml version="1.0" encoding="UTF-8" standalone="no"?>
<!-- Created with Inkscape (http://www.inkscape.org/) -->

<svg
   xmlns:dc="http://purl.org/dc/elements/1.1/"
   xmlns:cc="http://creativecommons.org/ns#"
   xmlns:rdf="http://www.w3.org/1999/02/22-rdf-syntax-ns#"
   xmlns:svg="http://www.w3.org/2000/svg"
   xmlns="http://www.w3.org/2000/svg"
   xmlns:sodipodi="http://sodipodi.sourceforge.net/DTD/sodipodi-0.dtd"
   xmlns:inkscape="http://www.inkscape.org/namespaces/inkscape"
   width="500"
   height="300"
   viewBox="0 0 132.29178 79.375002"
   version="1.1"
   id="svg35"
   inkscape:version="0.92.4 (5da689c313, 2019-01-14)"
   sodipodi:docname="fato1sobremim.svg">
  <defs
     id="defs29" />
  <sodipodi:namedview
     id="base"
     pagecolor="#ffffff"
     bordercolor="#666666"
     borderopacity="1.0"
     inkscape:pageopacity="0.0"
     inkscape:pageshadow="2"
     inkscape:zoom="1.3233333"
     inkscape:cx="302.26351"
     inkscape:cy="97.196266"
     inkscape:document-units="px"
     inkscape:current-layer="layer1"
     showgrid="false"
     units="px"
     showguides="true"
     inkscape:guide-bbox="true"
     inkscape:window-width="1920"
     inkscape:window-height="972"
     inkscape:window-x="1366"
     inkscape:window-y="30"
     inkscape:window-maximized="1" />
  <metadata
     id="metadata32">
    <rdf:RDF>
      <cc:Work
         rdf:about="">
        <dc:format>image/svg+xml</dc:format>
        <dc:type
           rdf:resource="http://purl.org/dc/dcmitype/StillImage" />
        <dc:title></dc:title>
      </cc:Work>
    </rdf:RDF>
  </metadata>
  <g
     inkscape:label="Camada 1"
     inkscape:groupmode="layer"
     id="layer1"
     transform="translate(0,-217.62505)">
    <rect
       style="fill:#82b182;fill-opacity:1;stroke:#000000;stroke-width:0.27794489;stroke-miterlimit:4;stroke-dasharray:none;stroke-opacity:1"
       id="rect4707"
       width="132.01378"
       height="79.097092"
       x="0.13897245"
       y="217.76402" />
    <g
       id="g4715"
       transform="matrix(-2.1493231,0,0,-2.1493231,159.58717,765.49343)">
      <path
         sodipodi:open="true"
         d="M 73.437077,217.64783 A 30.042591,22.196173 0 0 1 58.811672,237.27176 30.042591,22.196173 0 0 1 28.491577,237.48533 30.042591,22.196173 0 0 1 13.362415,218.07099"
         sodipodi:end="3.1481625"
         sodipodi:start="6.2575482"
         sodipodi:ry="22.196173"
         sodipodi:rx="30.042591"
         sodipodi:cy="218.21681"
         sodipodi:cx="43.404358"
         sodipodi:type="arc"
         id="path4709"
         style="fill:#828282;fill-opacity:0;stroke:#000000;stroke-width:1.32291722;stroke-miterlimit:4;stroke-dasharray:none;stroke-opacity:1" />
      <rect
         y="223.20135"
         x="14.279065"
         height="0.035340011"
         width="58.211937"
         id="rect4711"
         style="fill:#828282;fill-opacity:0;stroke:#000000;stroke-width:1.32291722;stroke-miterlimit:4;stroke-dasharray:none;stroke-opacity:1" />
    </g>
    <path
       style="fill:#ff0000;fill-opacity:1;stroke:#000000;stroke-width:0.996701;stroke-miterlimit:4;stroke-dasharray:none;stroke-opacity:1"
       d="m 24.429871,245.0118 c -5.292987,4.96218 -13.138502,3.974 -13.136857,8.87621 0.0011,3.2788 3.960874,4.40912 6.963929,7.83021 2.685037,8.25967 -11.6273891,10.02329 -11.9350993,14.00508 -0.00121,4.02003 4.5306823,7.28024 10.1194993,7.27864 3.43073,-0.40601 15.425076,-8.19993 15.089379,-0.70989 -0.0021,5.49041 5.563949,9.94119 12.426969,9.94105 6.862766,-1.3e-4 12.429264,-4.45084 12.426316,-9.94105 -0.0023,-4.09766 -4.090179,-6.05143 -7.927537,-9.25647 -1.492246,-1.24636 1.531389,-3.47088 1.536582,-5.30082 0,0 -2.588314,-26.17933 -14.703517,-6.98656 -4.697557,7.44181 -4.397343,-19.04233 -10.859624,-15.73644 z"
       id="path4658"
       inkscape:connector-curvature="0"
       sodipodi:nodetypes="ssccccssscscs" />
    <g
       id="g4589"
       transform="matrix(1.5101855,0,0,1.5101855,-49.376735,-143.77664)">
      <circle
         r="18.30797"
         cy="269.20404"
         cx="99.691574"
         id="path37"
         style="fill:#ff5555;fill-opacity:1;stroke:#000000;stroke-width:0.79375035;stroke-miterlimit:4;stroke-dasharray:none;stroke-opacity:1" />
      <path
         d="m 88.165694,254.92404 a 18.30797,18.30797 0 0 1 7.505323,14.37293 18.30797,18.30797 0 0 1 -6.851503,14.69584"
         sodipodi:open="true"
         sodipodi:end="0.8950099"
         sodipodi:start="5.3431986"
         sodipodi:ry="18.30797"
         sodipodi:rx="18.30797"
         sodipodi:cy="269.70865"
         sodipodi:cx="77.367676"
         sodipodi:type="arc"
         id="path37-3"
         style="fill:#000000;fill-opacity:0.00990098;stroke:#000000;stroke-width:0.79375035;stroke-miterlimit:4;stroke-dasharray:none;stroke-opacity:1" />
      <path
         d="m 110.59519,283.73802 a 18.30797,18.30797 0 0 1 -6.66193,-14.49725 18.30797,18.30797 0 0 1 7.23912,-14.21782"
         sodipodi:open="true"
         sodipodi:end="4.0633893"
         sodipodi:start="2.2599922"
         sodipodi:ry="18.30797"
         sodipodi:rx="18.30797"
         sodipodi:cy="269.6087"
         sodipodi:cx="122.23753"
         sodipodi:type="arc"
         id="path37-3-6"
         style="fill:#000000;fill-opacity:0.00990098;stroke:#000000;stroke-width:0.79375035;stroke-miterlimit:4;stroke-dasharray:none;stroke-opacity:1" />
      <rect
         y="250.91989"
         x="99.832527"
         height="36.278004"
         width="0.089386821"
         id="rect4583"
         style="fill:#000000;fill-opacity:0.00990098;stroke:#000000;stroke-width:0.80433208;stroke-miterlimit:4;stroke-dasharray:none;stroke-opacity:1" />
    </g>
    <path
       style="fill:#c8b7b7;stroke:#000000;stroke-width:0.39957005px;stroke-linecap:butt;stroke-linejoin:miter;stroke-opacity:1"
       d="m 73.513712,258.85336 c 0,0 6.944668,0.6039 11.473798,-4.52912 4.529133,-5.13301 8.907297,13.43642 1.35874,20.53206 -7.246611,-3.17039 -11.32283,-2.11359 -11.32283,-2.11359 z"
       id="path4591"
       inkscape:connector-curvature="0" />
    <g
       id="g4705"
       transform="translate(-15.27466,-3.6152403)">
      <path
         sodipodi:nodetypes="cccscccccc"
         inkscape:connector-curvature="0"
         id="path4598"
         d="m 52.318618,269.42553 c -1.984292,-0.19123 -3.753414,1.31886 -3.951602,3.373 1.414028,2.63472 -1.507092,5.26748 -1.758434,7.48125 -0.114505,1.18698 3.98468,-3.05795 4.755278,-2.29623 0.563123,0.55664 -2.166811,3.68198 -0.917726,4.68498 2.228092,-2.52898 2.773287,-0.95677 5.210227,-3.48438 2.474211,-0.78593 3.247823,-2.49054 3.430741,-3.93999 0.19818,-2.05438 -1.249984,-3.87496 -3.2345,-4.06629 -0.267284,-0.0242 -0.536536,-0.0174 -0.802763,0.0202 -0.586655,-1.005 -1.598815,-1.66189 -2.731221,-1.77256 z"
         style="fill:#ffffff;fill-opacity:1;stroke:#000000;stroke-width:0.2854507;stroke-miterlimit:4;stroke-dasharray:none;stroke-opacity:1" />
      <path
         sodipodi:nodetypes="cscccssc"
         inkscape:connector-curvature="0"
         id="path4631"
         d="m 50.879932,270.3708 c 0,0 2.427373,-0.76615 3.241306,1.16572 0.813935,1.93186 2.605683,1.04558 2.605683,1.04558 l 1.687626,2.63391 -2.404764,-1.90877 c 0,0 -1.715249,1.02623 -1.892514,0.40587 -0.179307,-0.62749 1.057438,-0.89826 -0.56566,-1.76083 -1.623098,-0.86257 -2.671677,-1.58148 -2.671677,-1.58148 z"
         style="fill:#828282;fill-opacity:1;stroke:#000000;stroke-width:0.15500343px;stroke-linecap:butt;stroke-linejoin:miter;stroke-opacity:1" />
    </g>
  </g>
</svg>
